<svg width="32" height="32" viewBox="0 0 32 32" fill="none" xmlns="http://www.w3.org/2000/svg">
<path d="M14 5.5C14.407 5.50006 14.7966 5.6202 15.085 5.90527C15.3742 6.19135 15.5 6.58225 15.5 7V12C15.5 11.5821 15.6256 11.1914 15.915 10.9053C16.2035 10.6202 16.5929 10.5 17 10.5C17.407 10.5001 17.7966 10.6202 18.085 10.9053C18.3742 11.1914 18.5 11.5823 18.5 12V13C18.5 12.5821 18.6256 12.1914 18.915 11.9053C19.2035 11.6202 19.5929 11.5 20 11.5C20.407 11.5001 20.7966 11.6202 21.085 11.9053C21.3742 12.1914 21.5 12.5823 21.5 13V14C21.5 13.5821 21.6256 13.1914 21.915 12.9053C22.2035 12.6202 22.5929 12.5 23 12.5C23.407 12.5001 23.7966 12.6202 24.085 12.9053C24.3742 13.1914 24.5 13.5823 24.5 14V20.5C24.5016 20.5158 24.6097 22.4702 23.5879 24.0645C23.1637 24.7338 22.6391 25.6104 21.7861 26.3008C20.9125 27.0078 19.7253 27.4999 18 27.5C14.0502 27.5 12.4965 24.8511 11.8604 23.7627L11.8545 23.7539L11.8496 23.7451C11.7934 23.639 11.7424 23.5511 11.6963 23.4824L11.6924 23.4756L11.6875 23.4678C11.2435 22.756 10.5464 21.9174 9.15234 20.4326V20.4316C8.95093 20.2169 8.75988 20.0325 8.54199 19.8076L8.20801 19.4736C7.8865 19.1461 7.60763 18.8406 7.41797 18.5615C7.17242 18.2 6.95449 17.6962 7.25879 17.1973L7.26172 17.1934C7.64531 16.5776 8.15278 16.126 8.8418 16.126C9.27216 16.126 9.6877 16.3006 10.0986 16.5713L10.2754 16.6924L10.2773 16.6943C10.6344 16.9557 11.2114 17.4078 11.6953 17.79C11.9384 17.982 12.1616 18.1592 12.3232 18.2871C12.3262 18.2894 12.3291 18.2917 12.332 18.2939L12.5 18.2031V7C12.5 6.58212 12.6256 6.19138 12.915 5.90527C13.2035 5.62016 13.5929 5.5 14 5.5Z" fill="white" stroke="black"/>
</svg>
